# xmcd
#
# Track frame offsets:
#	150
#	16579
#	28562
#	45641
#	70192
#	86535
#	100722
#	119818
#	149767
#	164066
#	179842
#	201202
#	217934
#	235226
#	248628
#	261632
#	281040
#
# Disc length: 3978 seconds
#
# Revision: 0
# Processed by: cddbd v1.5.2PL0 Copyright (c) Steve Scherf et al.
# Submitted via: EZCDAudioConverter 1.3.4.1
#
DISCID=030f8811
DTITLE=Various Artist - The World Ends 2/2
DYEAR=1900
DGENRE=
TTITLE0=The Thermometers - Babalawo
TTITLE1=Colomach - Ottoto Shamoleda
TTITLE2=Black Mirrors  - The World Ends
TTITLE3=The Semi-Colon  - Isi Agboncha
TTITLE4=Lawrence Amavi Group - Money That's What I Want
TTITLE5=The Hygrades - Somebody's Gotta Lose Or Win
TTITLE6=Ofege - In Concert
TTITLE7=The Elcados  - Chokoi and Oreje
TTITLE8=Sonny Okosuns and Paperback Limted - Ohomi
TTITLE9=Chuck Barrister and The Voices Of Darkness - Be Kind, Be Foolish, Be Hap
TTITLE9=py
TTITLE10=Tony Grey and The Magnificent Zeinians - Ugbo Ndoma
TTITLE11=Reme Izabo's Music Research - The Same Man (Ayamayama)
TTITLE12=The Action 13 - Active Action
TTITLE13=The Actions - Kpokposikposi
TTITLE14=The Strangers - Onye Ije
TTITLE15=The Comrades - Bullwalk
TTITLE16=Ofo The Black Company - Egwu Aja
EXTD=
EXTT0=
EXTT1=
EXTT2=
EXTT3=
EXTT4=
EXTT5=
EXTT6=
EXTT7=
EXTT8=
EXTT9=
EXTT10=
EXTT11=
EXTT12=
EXTT13=
EXTT14=
EXTT15=
EXTT16=
PLAYORDER=
